<svg width="28" height="28" viewBox="0 0 28 28" xmlns="http://www.w3.org/2000/svg"><g id="导出标注" stroke="none" stroke-width="1" fill="none" fill-rule="evenodd"><g id="邀请成员-通讯录选人-下拉更新提示" transform="translate(-225 -1138)"><g id="编组-2" transform="translate(225 1130)"><g id="编组-3"><g id="icon-/-set_top" transform="matrix(1 0 0 -1 0 36)"><g id="icon_set_top"><path id="Rectangle" fill-rule="nonzero" d="M0 0h28v28H0z"/><path d="M15.167 10.075V26.25a.583.583 0 0 1-.584.583h-1.166a.583.583 0 0 1-.584-.583V10.077l-5.02 5.02a.583.583 0 0 1-.824 0l-.825-.825a.583.583 0 0 1 0-.825l7.424-7.425a.583.583 0 0 1 .825 0l7.425 7.425a.583.583 0 0 1 0 .825l-.825.825a.583.583 0 0 1-.825 0l-5.021-5.022zM7.583 1.167h12.834c.322 0 .583.26.583.583v1.167a.583.583 0 0 1-.583.583H7.583A.583.583 0 0 1 7 2.917V1.75c0-.322.261-.583.583-.583z" id="形状" fill="#8F959E"/></g></g></g></g></g></g></svg>