<?xml version="1.0" standalone="no"?><!DOCTYPE svg PUBLIC "-//W3C//DTD SVG 1.1//EN" "http://www.w3.org/Graphics/SVG/1.1/DTD/svg11.dtd"><svg t="1583827425795" class="icon" viewBox="0 0 1024 1024" version="1.1" xmlns="http://www.w3.org/2000/svg" p-id="5016" width="16" height="16" xmlns:xlink="http://www.w3.org/1999/xlink"><defs><style type="text/css"></style></defs><path d="M178.367899 412.029124l12.565177 12.68388c2.532683 2.558265 5.987365 3.994987 9.586332 3.994987s7.054673-1.436722 9.585309-3.994987l280.295847-282.536888 0 805.853631c0 7.594979 6.118348 13.580297 13.661138 13.580297l15.875572 0c7.66047 0 13.661138-6.066159 13.661138-13.580297L533.598412 142.178163l280.295847 282.534841c5.062296 5.116531 14.108323 5.116531 19.170618 0l12.5662-12.68388c5.221932-5.27412 5.221932-13.752212 0-19.015076L521.585821 66.384943c-2.532683-2.558265-5.987365-3.994987-9.586332-3.994987s-7.054673 1.436722-9.585309 3.994987L178.367899 393.014048C173.145967 398.275889 173.145967 406.753981 178.367899 412.029124z" p-id="5017"></path></svg>