<?xml version="1.0" standalone="no"?><!DOCTYPE svg PUBLIC "-//W3C//DTD SVG 1.1//EN" "http://www.w3.org/Graphics/SVG/1.1/DTD/svg11.dtd"><svg t="1583827282336" class="icon" viewBox="0 0 1024 1024" version="1.1" xmlns="http://www.w3.org/2000/svg" p-id="3828" width="16" height="16" xmlns:xlink="http://www.w3.org/1999/xlink"><defs><style type="text/css"></style></defs><path d="M845.631078 611.970876l-12.565177-12.68388c-2.532683-2.558265-5.987365-3.994987-9.586332-3.994987s-7.054673 1.436722-9.585309 3.994987L533.597389 881.823883l0-805.853631c0-7.593955-6.118348-13.580297-13.660114-13.580297l-15.875572 0c-7.661494 0-13.661138 6.065136-13.661138 13.580297l0 805.851585-280.295847-282.534841c-5.062296-5.116531-14.108323-5.116531-19.170618 0l-12.5662 12.68388c-5.221932 5.27412-5.221932 13.752212 0 19.015076l324.046281 326.628082c2.532683 2.558265 5.987365 3.994987 9.586332 3.994987s7.054673-1.436722 9.585309-3.994987l324.045257-326.628082C850.85301 625.724111 850.85301 617.246019 845.631078 611.970876z" p-id="3829" fill="#8a8a8a"></path></svg>