<svg width="28" height="28" viewBox="0 0 28 28" xmlns="http://www.w3.org/2000/svg"><g id="导出标注" stroke="none" stroke-width="1" fill="none" fill-rule="evenodd"><g id="邀请成员-通讯录选人-正在加载" transform="translate(-309 -1138)" fill="#8F959E"><g id="编组-4" transform="translate(309 1130)"><g id="Button/Primary备份-2" transform="translate(0 8)"><g id="pc/progress-bar/circular/mini/progress"><path d="M13.687 27.997C6.1 27.83 0 21.627 0 14a1.75 1.75 0 0 1 3.5 0c0 5.799 4.701 10.5 10.5 10.5l.284-.004C19.952 24.346 24.5 19.704 24.5 14c0-5.799-4.701-10.5-10.5-10.5A1.75 1.75 0 0 1 14 0c7.732 0 14 6.268 14 14s-6.268 14-14 14z" id="形状结合"/></g></g></g></g></g></svg>